<svg width="18" height="18" viewBox="0 0 18 18" fill="none" xmlns="http://www.w3.org/2000/svg">
<path d="M16.9856 0.546685L16.986 0.546475C17.2342 0.403018 17.5426 0.616432 17.4944 0.902241L17.4943 0.903033L14.9631 16.0859C14.963 16.0861 14.963 16.0864 14.9629 16.0866C14.9249 16.3081 14.6903 16.4333 14.4903 16.3488L14.4889 16.3482L10.1079 14.5134L9.76471 14.3697L9.52847 14.6572L7.2958 17.3742L7.29528 17.3749C7.09643 17.6177 6.68781 17.4893 6.68781 17.1363V14.4858L15.0436 4.30866C15.0437 4.3085 15.0438 4.30834 15.044 4.30818C15.5999 3.63323 14.6795 2.74278 14.0242 3.3243C14.0238 3.32467 14.0233 3.32503 14.0229 3.32539L4.15852 12.0163L0.710935 10.5703C0.710778 10.5702 0.710621 10.5701 0.710465 10.5701C0.452448 10.4607 0.416672 10.102 0.68819 9.94602L0.688948 9.94558L16.9856 0.546685Z" fill="white" stroke="#26A469"/>
</svg>
